<?xml version="1.0" ?><!DOCTYPE svg  PUBLIC '-//W3C//DTD SVG 1.1//EN'  'http://www.w3.org/Graphics/SVG/1.1/DTD/svg11.dtd'><svg enable-background="new 0 0 32 32"  id="Слой_1" version="1.1" viewBox="0 0 32 32"  xml:space="preserve" xmlns="http://www.w3.org/2000/svg" xmlns:xlink="http://www.w3.org/1999/xlink"><path d="M15.299,0.272L8.3,7.171c-0.394,0.391-0.394,1.024,0,1.414  c0.395,0.391,1.034,0.391,1.429,0l5.276-5.201v11.268l-6.721,6.625c-0.17,0.169-0.297,0.46-0.297,0.708v9  c0,0.873,1.102,1.323,1.724,0.707l6.285-6.196l6.285,6.196c0.607,0.601,1.706,0.191,1.706-0.799v-8.816  c0-0.292-0.056-0.58-0.278-0.8l-6.704-6.609V3.367l5.294,5.219c0.394,0.391,1.034,0.391,1.429,0c0.394-0.391,0.394-1.024,0-1.414  l-6.999-6.9c-0.192-0.189-0.456-0.286-0.723-0.286C15.769-0.014,15.469,0.103,15.299,0.272z M21.986,22.403v6.177l-4.982-4.911  v-6.177L21.986,22.403z M15.004,23.652l-5.018,4.947v-6.178l5.018-4.947V23.652z" fill="#121313" id="Vintage_Arrow_Up_2_"/><g/><g/><g/><g/><g/><g/></svg>